<svg width="176" height="32" viewBox="0 0 176 32" fill="none" xmlns="http://www.w3.org/2000/svg">
<path d="M159.093 1.95296C159.451 1.18123 160.549 1.18123 160.907 1.95296L164.299 9.25626C164.444 9.57002 164.742 9.78618 165.085 9.8278L173.079 10.7966C173.924 10.899 174.263 11.9425 173.64 12.5218L167.742 18.0043C167.489 18.2399 167.375 18.5896 167.442 18.9291L168.99 26.8312C169.154 27.6662 168.266 28.3111 167.523 27.8974L160.486 23.9825C160.184 23.8143 159.816 23.8143 159.514 23.9825L152.477 27.8974C151.734 28.3111 150.846 27.6662 151.01 26.8312L152.558 18.9291C152.625 18.5896 152.511 18.2399 152.258 18.0043L146.36 12.5218C145.737 11.9425 146.076 10.899 146.921 10.7966L154.915 9.8278C155.258 9.78618 155.556 9.57002 155.701 9.25626L159.093 1.95296Z" fill="#F0CF47"/>
<path d="M123.093 1.95296C123.451 1.18123 124.549 1.18123 124.907 1.95296L128.299 9.25626C128.444 9.57002 128.742 9.78618 129.085 9.8278L137.079 10.7966C137.924 10.899 138.263 11.9425 137.64 12.5218L131.742 18.0043C131.489 18.2399 131.375 18.5896 131.442 18.9291L132.99 26.8312C133.154 27.6662 132.266 28.3111 131.523 27.8974L124.486 23.9825C124.184 23.8143 123.816 23.8143 123.514 23.9825L116.477 27.8974C115.734 28.3111 114.846 27.6662 115.01 26.8312L116.558 18.9291C116.625 18.5896 116.511 18.2399 116.258 18.0043L110.36 12.5218C109.737 11.9425 110.076 10.899 110.921 10.7966L118.915 9.8278C119.258 9.78618 119.556 9.57002 119.701 9.25626L123.093 1.95296Z" fill="#F0CF47"/>
<path d="M87.093 1.95296C87.4514 1.18123 88.5486 1.18123 88.907 1.95296L92.2987 9.25626C92.4444 9.57002 92.7419 9.78618 93.0853 9.8278L101.079 10.7966C101.924 10.899 102.263 11.9425 101.64 12.5218L95.742 18.0043C95.4887 18.2399 95.375 18.5896 95.4416 18.9291L96.9904 26.8312C97.1541 27.6662 96.2665 28.3111 95.5229 27.8974L88.4862 23.9825C88.1839 23.8143 87.8161 23.8143 87.5138 23.9825L80.4771 27.8974C79.7335 28.3111 78.8459 27.6662 79.0096 26.8312L80.5584 18.9291C80.625 18.5896 80.5113 18.2399 80.258 18.0043L74.3602 12.5218C73.737 11.9425 74.076 10.899 74.9207 10.7966L82.9147 9.8278C83.2581 9.78618 83.5556 9.57002 83.7013 9.25626L87.093 1.95296Z" fill="#F0CF47"/>
<path d="M51.093 1.95296C51.4514 1.18123 52.5486 1.18123 52.907 1.95296L56.2987 9.25626C56.4444 9.57002 56.7419 9.78618 57.0853 9.8278L65.0793 10.7966C65.924 10.899 66.263 11.9425 65.6398 12.5218L59.742 18.0043C59.4887 18.2399 59.375 18.5896 59.4416 18.9291L60.9904 26.8312C61.1541 27.6662 60.2665 28.3111 59.5229 27.8974L52.4862 23.9825C52.1839 23.8143 51.8161 23.8143 51.5138 23.9825L44.4771 27.8974C43.7335 28.3111 42.8459 27.6662 43.0096 26.8312L44.5584 18.9291C44.625 18.5896 44.5113 18.2399 44.258 18.0043L38.3602 12.5218C37.737 11.9425 38.076 10.899 38.9207 10.7966L46.9147 9.8278C47.2581 9.78618 47.5556 9.57002 47.7013 9.25626L51.093 1.95296Z" fill="#F0CF47"/>
<path d="M15.093 1.95296C15.4514 1.18123 16.5486 1.18123 16.907 1.95296L20.2987 9.25626C20.4444 9.57002 20.7419 9.78618 21.0853 9.8278L29.0793 10.7966C29.924 10.899 30.263 11.9425 29.6398 12.5218L23.742 18.0043C23.4887 18.2399 23.375 18.5896 23.4416 18.9291L24.9904 26.8312C25.1541 27.6662 24.2665 28.3111 23.5229 27.8974L16.4862 23.9825C16.1839 23.8143 15.8161 23.8143 15.5138 23.9825L8.47711 27.8974C7.73355 28.3111 6.84594 27.6662 7.00961 26.8312L8.55844 18.9291C8.62498 18.5896 8.51134 18.2399 8.25797 18.0043L2.36021 12.5218C1.737 11.9425 2.07603 10.899 2.92074 10.7966L10.9147 9.8278C11.2581 9.78618 11.5556 9.57002 11.7013 9.25626L15.093 1.95296Z" fill="#F0CF47"/>
</svg>
